HIERARCHY
ROOT Hips
{
	OFFSET -0.001795 -0.223333 0.028219
	CHANNELS 6 Xposition Yposition Zposition Zrotation Yrotation Xrotation 
	JOINT LeftUpLeg
	{
		OFFSET 0.069520 -0.091406 -0.006815
		CHANNELS 3 Zrotation Yrotation Xrotation
		JOINT LeftLeg
		{
			OFFSET 0.034277 -0.375199 -0.004496
			CHANNELS 3 Zrotation Yrotation Xrotation
			JOINT LeftFoot
			{
				OFFSET -0.013596 -0.397961 -0.043693
				CHANNELS 3 Zrotation Yrotation Xrotation
				JOINT LeftToe
				{
					OFFSET 0.026358 -0.055791 0.119288
					CHANNELS 3 Zrotation Yrotation Xrotation
					End Site
					{
						OFFSET 0.000000 0.000000 0.000000
					}
				}
			}
		}
	}
	JOINT RightUpLeg
	{
		OFFSET -0.067670 -0.090522 -0.004320
		CHANNELS 3 Zrotation Yrotation Xrotation
		JOINT RightLeg
		{
			OFFSET -0.038290 -0.382569 -0.008850
			CHANNELS 3 Zrotation Yrotation Xrotation
			JOINT RightFoot
			{
				OFFSET 0.015774 -0.398415 -0.042312
				CHANNELS 3 Zrotation Yrotation Xrotation
				JOINT RightToe
				{
					OFFSET -0.025372 -0.048144 0.123348
					CHANNELS 3 Zrotation Yrotation Xrotation
					End Site
					{
						OFFSET 0.000000 0.000000 0.000000
					}
				}
			}
		}
	}
	JOINT Spine
	{
		OFFSET -0.002533 0.108963 -0.026696
		CHANNELS 3 Zrotation Yrotation Xrotation
		JOINT Spine1
		{
			OFFSET 0.005487 0.135180 0.001092
			CHANNELS 3 Zrotation Yrotation Xrotation
			JOINT Spine2
			{
				OFFSET 0.001457 0.052922 0.025425
				CHANNELS 3 Zrotation Yrotation Xrotation
				JOINT Neck
				{
					OFFSET -0.002778 0.213870 -0.042857
					CHANNELS 3 Zrotation Yrotation Xrotation
					JOINT Head
					{
						OFFSET 0.005152 0.064970 0.051349
						CHANNELS 3 Zrotation Yrotation Xrotation
						End Site
						{
							OFFSET 0.000000 0.000000 0.000000
						}
					}
				}
				JOINT LeftShoulder
				{
					OFFSET 0.078845 0.121749 -0.034090
					CHANNELS 3 Zrotation Yrotation Xrotation
					JOINT LeftArm
					{
						OFFSET 0.090977 0.030469 -0.008868
						CHANNELS 3 Zrotation Yrotation Xrotation
						JOINT LeftForeArm
						{
							OFFSET 0.259612 -0.012772 -0.027456
							CHANNELS 3 Zrotation Yrotation Xrotation
							JOINT LeftHand
							{
								OFFSET 0.249234 0.008986 -0.001171
								CHANNELS 3 Zrotation Yrotation Xrotation
								End Site
								{
									OFFSET 0.000000 0.000000 0.000000
								}
							}
						}
					}
				}
				JOINT RightShoulder
				{
					OFFSET -0.081759 0.118833 -0.038615
					CHANNELS 3 Zrotation Yrotation Xrotation
					JOINT RightArm
					{
						OFFSET -0.096012 0.032551 -0.009143
						CHANNELS 3 Zrotation Yrotation Xrotation
						JOINT RightForeArm
						{
							OFFSET -0.253742 -0.013329 -0.021401
							CHANNELS 3 Zrotation Yrotation Xrotation
							JOINT RightHand
							{
								OFFSET -0.255298 0.007772 -0.005559
								CHANNELS 3 Zrotation Yrotation Xrotation
								End Site
								{
									OFFSET 0.000000 0.000000 0.000000
								}
							}
						}
					}
				}
			}
		}
	}
}
MOTION
Frames: 7
Frame Time: 0.050000
0.000000 0.943241 0.000000 -2.303180 3.837324 7.365490 6.908098 -0.375979 -3.455681 1.624209 0.222214 -8.327311 2.101749 8.399009 11.895338 0.000000 0.000000 0.000000 -4.888170 0.565328 -6.908617 -0.644092 -0.029555 -2.240475 -1.840484 -7.795447 11.362999 0.000000 0.000000 0.000000 1.472117 0.267934 -6.334730 0.619446 -0.088704 -4.724798 -0.626979 -0.666358 4.465048 1.258189 -0.103464 -8.912903 0.000000 0.000000 0.000000 -14.540197 3.844904 -3.520403 -59.337098 -6.002709 -4.077173 -7.526666 -16.224679 1.625233 0.000000 0.000000 0.000000 12.669311 -4.371973 -2.980697 63.481579 5.787518 -2.873116 3.932494 14.503937 0.926685 0.000000 0.000000 0.000000 
-0.000033 0.942299 -0.000097 -2.546661 2.332322 7.891164 6.414994 -0.348297 -3.156941 3.060993 0.236952 -9.254956 2.678683 9.221838 12.150148 0.000000 0.000000 0.000000 -4.972366 0.635428 -7.797844 -0.147935 -0.043809 -1.470765 -0.758739 -5.778959 10.969702 0.000000 0.000000 0.000000 2.048577 0.299865 -6.580229 -0.331041 0.301361 -5.056016 0.232052 -0.104082 3.997405 0.343794 0.460462 -8.500067 0.000000 0.000000 0.000000 -15.861088 5.449677 -4.452383 -58.741144 -5.419215 -4.248627 -7.894670 -16.345095 1.700042 0.000000 0.000000 0.000000 12.239351 -4.968218 -3.289148 63.829295 5.052586 -3.251798 3.901258 15.009897 0.945687 0.000000 0.000000 0.000000 
0.000002 0.942030 -0.000276 -2.159600 2.884486 7.600294 6.243811 -0.338597 -2.885057 3.102508 0.209357 -8.809920 2.208515 8.508848 12.046505 0.000000 0.000000 0.000000 -5.351792 0.595057 -7.485559 -0.209366 -0.025470 -1.177059 -1.170222 -6.316388 10.225107 0.000000 0.000000 0.000000 1.570331 0.256634 -5.983587 0.090884 0.183138 -6.537691 -0.513815 -0.813169 4.532654 0.100083 0.640786 -8.873482 0.000000 0.000000 0.000000 -15.190041 5.021614 -4.075713 -59.311079 -5.089152 -4.518271 -6.814282 -15.976768 1.523424 0.000000 0.000000 0.000000 13.827415 -4.468903 -3.286600 62.162626 5.188763 -3.199131 3.680000 14.192079 0.862070 0.000000 0.000000 0.000000 
0.000071 0.941777 -0.000337 -2.567381 2.144912 7.782678 6.161480 -0.334134 -2.958223 3.722283 0.205547 -8.990657 2.532483 9.012191 12.316310 0.000000 0.000000 0.000000 -5.262969 0.666014 -8.558112 0.196402 -0.033977 -0.343783 -0.954649 -5.976982 10.218559 0.000000 0.000000 0.000000 1.852955 0.266874 -6.004418 -0.691344 0.482350 -6.462214 0.542346 -1.692192 3.844515 -0.609002 0.973170 -7.995171 0.000000 0.000000 0.000000 -14.778797 6.059137 -4.269033 -60.462825 -4.976863 -4.535913 -6.047599 -15.815744 1.440480 0.000000 0.000000 0.000000 12.483911 -4.338757 -3.284325 62.479714 5.378894 -3.121146 4.545085 14.227910 0.919067 0.000000 0.000000 0.000000 
0.000023 0.942060 -0.000410 -2.435576 2.510953 7.569733 6.033610 -0.325867 -2.751001 3.624767 0.216317 -9.134315 2.106966 8.397372 12.396026 0.000000 0.000000 0.000000 -5.341941 0.648899 -8.447731 0.025725 -0.016179 -0.342788 -1.264763 -6.639477 10.551757 0.000000 0.000000 0.000000 1.655943 0.254284 -5.847937 -0.308265 0.330182 -6.300765 0.160244 -2.086613 3.831913 -0.885198 1.197893 -8.710466 0.000000 0.000000 0.000000 -14.466983 5.690246 -4.023728 -60.464695 -5.265683 -4.384375 -6.381102 -15.287511 1.435007 0.000000 0.000000 0.000000 12.325724 -4.360715 -3.285343 62.490239 5.894579 -2.854116 5.210939 13.840718 0.955603 0.000000 0.000000 0.000000 
-0.000002 0.942629 -0.000430 -2.533476 1.845988 7.705464 5.841561 -0.316630 -2.751746 3.757746 0.211857 -9.107625 2.826508 9.490464 12.493574 0.000000 0.000000 0.000000 -5.336003 0.686625 -8.976477 -0.084690 0.003745 -0.129278 -0.987848 -6.351854 11.182217 0.000000 0.000000 0.000000 1.674880 0.264449 -5.972938 -0.357120 0.350803 -6.705924 0.471173 -2.211400 4.333166 -0.884403 1.141526 -8.356816 0.000000 0.000000 0.000000 -14.484203 5.983979 -4.067982 -60.454336 -4.948993 -4.567993 -7.155112 -15.851247 1.616682 0.000000 0.000000 0.000000 11.408712 -4.279319 -3.175388 62.727081 6.092239 -2.854679 6.068605 13.857110 1.033964 0.000000 0.000000 0.000000 
-0.000094 0.942831 -0.000503 -2.501269 2.012934 7.688595 5.664984 -0.318951 -2.825745 3.541975 0.212712 -9.040341 2.845706 9.620052 12.844098 0.000000 0.000000 0.000000 -5.308079 0.693481 -9.142551 -0.085680 0.012711 0.093736 -1.006830 -6.400370 11.301247 0.000000 0.000000 0.000000 1.577611 0.256059 -5.857274 -0.211040 0.291007 -6.573817 0.312942 -2.702682 4.329810 -0.983589 1.206087 -8.749272 0.000000 0.000000 0.000000 -14.203095 6.080429 -4.016881 -59.975652 -4.501409 -4.741017 -9.189778 -17.135428 2.068850 0.000000 0.000000 0.000000 10.926429 -3.728648 -2.899286 62.811137 5.980836 -2.949547 6.820196 14.418186 1.153978 0.000000 0.000000 0.000000 
